<svg width="64" height="64" viewBox="0 0 64 64" fill="none" xmlns="http://www.w3.org/2000/svg">
<g clip-path="url(#clip0_349_220)">
<path d="M50 0H14C6.26801 0 0 6.26801 0 14V50C0 57.732 6.26801 64 14 64H50C57.732 64 64 57.732 64 50V14C64 6.26801 57.732 0 50 0Z" fill="#F3EFE6"/>
<path d="M10 34C10 28.1652 12.3179 22.5695 16.4437 18.4437C20.5695 14.3179 26.1652 12 32 12M54 34C54 39.8348 51.6822 45.4306 47.5564 49.5564C43.4306 53.6822 37.8348 56 32 56" stroke="#B44D32" stroke-linecap="round" stroke-linejoin="round"/>
<path d="M39 12C40.1046 12 41 11.1046 41 10C41 8.89543 40.1046 8 39 8C37.8954 8 37 8.89543 37 10C37 11.1046 37.8954 12 39 12Z" fill="#B44D32"/>
<path d="M47.9996 17.4001C48.7728 17.4001 49.3996 16.7733 49.3996 16.0001C49.3996 15.2269 48.7728 14.6001 47.9996 14.6001C47.2264 14.6001 46.5996 15.2269 46.5996 16.0001C46.5996 16.7733 47.2264 17.4001 47.9996 17.4001Z" fill="#181916"/>
<path d="M25 59C26.1046 59 27 58.1046 27 57C27 55.8954 26.1046 55 25 55C23.8954 55 23 55.8954 23 57C23 58.1046 23.8954 59 25 59Z" fill="#B44D32"/>
<path d="M15.9996 49.4001C16.7728 49.4001 17.3996 48.7733 17.3996 48.0001C17.3996 47.2269 16.7728 46.6001 15.9996 46.6001C15.2264 46.6001 14.5996 47.2269 14.5996 48.0001C14.5996 48.7733 15.2264 49.4001 15.9996 49.4001Z" fill="#181916"/>
<path d="M42.0668 33.3999C41.9312 32.8319 41.5763 32.3509 41.0664 32.0666C40.5574 31.7821 39.9351 31.7176 39.3501 31.8834C38.7651 32.0493 38.2693 32.4308 37.9853 32.9401C37.7005 33.4497 37.6508 34.0454 37.8336 34.6001C37.8336 34.6001 37.8336 34.6001 37.8336 34.6001C38.0063 35.1252 38.179 35.6503 38.3517 36.1754C39.5874 39.9326 40.8231 43.6899 42.0587 47.4472L45.223 47.4105C46.4822 41.5496 47.7414 35.6888 49.0006 29.8279C49.1167 29.2875 49.2328 28.747 49.3489 28.2066C49.3929 28.0011 49.3517 27.7825 49.2392 27.6001C49.1265 27.4177 48.9517 27.2863 48.7484 27.2337C48.5451 27.1812 48.3286 27.2113 48.1415 27.3162C47.9546 27.4212 47.8126 27.5924 47.7515 27.7934C47.7515 27.7934 47.7515 27.7934 47.7515 27.7934C47.591 28.3224 47.4305 28.8513 47.27 29.3803C45.5296 35.1167 43.7892 40.8531 42.0488 46.5895L45.2131 46.5528C44.2929 42.7061 43.3727 38.8594 42.4526 35.0127C42.324 34.4751 42.1954 33.9375 42.0668 33.3999Z" fill="#B44D32"/>
<path d="M19 41V23L30 35L40 24V34" stroke="#181916" stroke-width="4.5" stroke-linejoin="round"/>
</g>
<defs>
<clipPath id="clip0_349_220">
<rect width="64" height="64" fill="white"/>
</clipPath>
</defs>
</svg>
