<svg xmlns="http://www.w3.org/2000/svg" viewBox="0 0 256 256" role="img" aria-labelledby="title">
  <title id="title">Matteo Vittori reversed monogram</title>
  <g fill="none" stroke="#b44d32" stroke-width="1.15"><path d="M37 126A91 91 0 0 1 127 36"/><path d="M219 130A91 91 0 0 1 129 220"/></g>
  <g fill="#b44d32">
    <circle cx="139" cy="31" r="2.1"/><circle cx="151" cy="38" r="1.35"/><circle cx="164" cy="35" r="2.6"/><circle cx="176" cy="43" r="1.6"/><circle cx="188" cy="48" r="2.2"/><circle cx="198" cy="58" r="1.25"/><circle cx="207" cy="67" r="2.7"/><circle cx="202" cy="79" r="1.45"/><circle cx="215" cy="84" r="2"/><circle cx="208" cy="96" r="1.2"/><circle cx="218" cy="104" r="2.45"/><circle cx="201" cy="108" r="1.55"/>
    <circle cx="117" cy="220" r="2.1"/><circle cx="104" cy="216" r="1.2"/><circle cx="91" cy="220" r="2.7"/><circle cx="79" cy="212" r="1.55"/><circle cx="67" cy="207" r="2.2"/><circle cx="57" cy="197" r="1.25"/><circle cx="48" cy="188" r="2.75"/><circle cx="53" cy="176" r="1.4"/><circle cx="40" cy="171" r="2"/><circle cx="47" cy="159" r="1.15"/><circle cx="37" cy="151" r="2.45"/><circle cx="54" cy="147" r="1.5"/>
  </g>
  <path d="M78 160V88l44 46 40-42v39" fill="none" stroke="#f3efe6" stroke-width="14" stroke-linecap="butt" stroke-linejoin="miter"/>
  <path d="m157 127 22 50 31-73" fill="none" stroke="#b44d32" stroke-width="14" stroke-linecap="butt" stroke-linejoin="miter"/>
</svg>
