<svg width="400" height="112" viewBox="0 0 400 112" fill="none" xmlns="http://www.w3.org/2000/svg">
<path d="M16.6494 54.7002C16.7664 43.9952 21.0709 33.7617 28.6409 26.1917C36.211 18.6217 46.4444 14.3172 57.1494 14.2002M98.5494 56.5002C98.4324 67.2052 94.1279 77.4387 86.5579 85.0087C78.9879 92.5787 68.7544 96.8832 58.0494 97.0002" stroke="#B44D32" stroke-width="0.81"/>
<path d="M65.2502 15.1C66.2443 15.1 67.0502 14.2941 67.0502 13.3C67.0502 12.3059 66.2443 11.5 65.2502 11.5C64.2561 11.5 63.4502 12.3059 63.4502 13.3C63.4502 14.2941 64.2561 15.1 65.2502 15.1Z" fill="#B44D32"/>
<path d="M73.3496 17.125C73.9709 17.125 74.4746 16.6213 74.4746 16C74.4746 15.3787 73.9709 14.875 73.3496 14.875C72.7283 14.875 72.2246 15.3787 72.2246 16C72.2246 16.6213 72.7283 17.125 73.3496 17.125Z" fill="#B44D32"/>
<path d="M81.4498 21.625C82.5682 21.625 83.4748 20.7183 83.4748 19.6C83.4748 18.4816 82.5682 17.575 81.4498 17.575C80.3314 17.575 79.4248 18.4816 79.4248 19.6C79.4248 20.7183 80.3314 21.625 81.4498 21.625Z" fill="#B44D32"/>
<path d="M89.0998 26.7099C89.7957 26.7099 90.3598 26.1458 90.3598 25.4499C90.3598 24.7541 89.7957 24.1899 89.0998 24.1899C88.404 24.1899 87.8398 24.7541 87.8398 25.4499C87.8398 26.1458 88.404 26.7099 89.0998 26.7099Z" fill="#B44D32"/>
<path d="M94.9504 35.35C95.9445 35.35 96.7504 34.5441 96.7504 33.55C96.7504 32.5559 95.9445 31.75 94.9504 31.75C93.9563 31.75 93.1504 32.5559 93.1504 33.55C93.1504 34.5441 93.9563 35.35 94.9504 35.35Z" fill="#B44D32"/>
<path d="M97.2003 44.62C97.8464 44.62 98.3703 44.0962 98.3703 43.45C98.3703 42.8039 97.8464 42.28 97.2003 42.28C96.5541 42.28 96.0303 42.8039 96.0303 43.45C96.0303 44.0962 96.5541 44.62 97.2003 44.62Z" fill="#B44D32"/>
<path d="M49.9504 97.9C50.9445 97.9 51.7504 97.0942 51.7504 96.1C51.7504 95.1059 50.9445 94.3 49.9504 94.3C48.9563 94.3 48.1504 95.1059 48.1504 96.1C48.1504 97.0942 48.9563 97.9 49.9504 97.9Z" fill="#B44D32"/>
<path d="M41.8496 94.5249C42.4709 94.5249 42.9746 94.0212 42.9746 93.3999C42.9746 92.7786 42.4709 92.2749 41.8496 92.2749C41.2283 92.2749 40.7246 92.7786 40.7246 93.3999C40.7246 94.0212 41.2283 94.5249 41.8496 94.5249Z" fill="#B44D32"/>
<path d="M33.7496 91.8249C34.868 91.8249 35.7746 90.9183 35.7746 89.7999C35.7746 88.6815 34.868 87.7749 33.7496 87.7749C32.6312 87.7749 31.7246 88.6815 31.7246 89.7999C31.7246 90.9183 32.6312 91.8249 33.7496 91.8249Z" fill="#B44D32"/>
<path d="M26.0998 85.2099C26.7957 85.2099 27.3598 84.6458 27.3598 83.9499C27.3598 83.2541 26.7957 82.6899 26.0998 82.6899C25.404 82.6899 24.8398 83.2541 24.8398 83.9499C24.8398 84.6458 25.404 85.2099 26.0998 85.2099Z" fill="#B44D32"/>
<path d="M20.2502 77.65C21.2443 77.65 22.0502 76.8442 22.0502 75.85C22.0502 74.8559 21.2443 74.05 20.2502 74.05C19.2561 74.05 18.4502 74.8559 18.4502 75.85C18.4502 76.8442 19.2561 77.65 20.2502 77.65Z" fill="#B44D32"/>
<path d="M18.0001 67.12C18.6463 67.12 19.1701 66.5962 19.1701 65.95C19.1701 65.3039 18.6463 64.78 18.0001 64.78C17.3539 64.78 16.8301 65.3039 16.8301 65.95C16.8301 66.5962 17.3539 67.12 18.0001 67.12Z" fill="#B44D32"/>
<path d="M79.6498 13.3001C80.3954 13.3001 80.9998 12.6957 80.9998 11.9501C80.9998 11.2045 80.3954 10.6001 79.6498 10.6001C78.9042 10.6001 78.2998 11.2045 78.2998 11.9501C78.2998 12.6957 78.9042 13.3001 79.6498 13.3001Z" fill="#181916"/>
<path d="M99.4499 30.58C100.295 30.58 100.98 29.895 100.98 29.05C100.98 28.205 100.295 27.52 99.4499 27.52C98.6049 27.52 97.9199 28.205 97.9199 29.05C97.9199 29.895 98.6049 30.58 99.4499 30.58Z" fill="#181916"/>
<path d="M35.5502 100.6C36.2958 100.6 36.9002 99.9957 36.9002 99.2501C36.9002 98.5046 36.2958 97.9001 35.5502 97.9001C34.8046 97.9001 34.2002 98.5046 34.2002 99.2501C34.2002 99.9957 34.8046 100.6 35.5502 100.6Z" fill="#181916"/>
<path d="M15.7497 83.6801C16.5947 83.6801 17.2797 82.9951 17.2797 82.1501C17.2797 81.3051 16.5947 80.6201 15.7497 80.6201C14.9047 80.6201 14.2197 81.3051 14.2197 82.1501C14.2197 82.9951 14.9047 83.6801 15.7497 83.6801Z" fill="#181916"/>
<path d="M74.0214 53.7918C73.8804 53.2392 73.526 52.7702 73.0292 52.4899C72.5329 52.2096 71.9348 52.1409 71.3736 52.2972C70.8123 52.4534 70.3358 52.8212 70.0557 53.3177C69.7752 53.8144 69.7141 54.399 69.879 54.945C69.879 54.945 69.879 54.945 69.879 54.945C70.1808 55.9459 70.4827 56.9468 70.7846 57.9477C72.9444 65.1084 75.1041 72.269 77.2639 79.4297L80.3602 79.3944C82.9151 68.3476 85.47 57.3008 88.0249 46.2541C88.2605 45.2355 88.4961 44.217 88.7316 43.1985C88.7788 42.9945 88.742 42.778 88.6319 42.5974C88.5217 42.4167 88.3473 42.2866 88.1445 42.2351C87.9416 42.1836 87.7262 42.2147 87.5432 42.3209C87.3603 42.4271 87.2247 42.5998 87.1688 42.8015C87.1688 42.8015 87.1688 42.8015 87.1688 42.8015C86.8898 43.8091 86.6108 44.8166 86.3318 45.8241C83.306 56.7513 80.2803 67.6784 77.2545 78.6056L80.3508 78.5703C78.4997 71.3237 76.6487 64.0771 74.7976 56.8305C74.5389 55.8176 74.2802 54.8047 74.0214 53.7918Z" fill="#B44D32"/>
<path d="M33 68V34L53.4286 56.6667L72 35.8889V54.7778" stroke="#181916" stroke-width="4.5" stroke-linejoin="round"/>
<path d="M127.75 52V26.8H136.15L143.15 51.09H140.105L147.105 26.8H155.54V52H150.22V28.305H151.13L144.305 52H138.74L131.985 28.515H132.86V52H127.75ZM170.609 52C170.469 51.4867 170.364 50.9383 170.294 50.355C170.248 49.7717 170.224 49.095 170.224 48.325H170.084V39.89C170.084 39.1667 169.839 38.6067 169.349 38.21C168.883 37.79 168.183 37.58 167.249 37.58C166.363 37.58 165.651 37.7317 165.114 38.035C164.601 38.3383 164.263 38.7817 164.099 39.365H159.094C159.328 37.755 160.156 36.425 161.579 35.375C163.003 34.325 164.951 33.8 167.424 33.8C169.991 33.8 171.951 34.3717 173.304 35.515C174.658 36.6583 175.334 38.3033 175.334 40.45V48.325C175.334 48.9083 175.369 49.5033 175.439 50.11C175.533 50.6933 175.673 51.3233 175.859 52H170.609ZM164.379 52.35C162.606 52.35 161.194 51.9067 160.144 51.02C159.094 50.11 158.569 48.9083 158.569 47.415C158.569 45.7583 159.188 44.4283 160.424 43.425C161.684 42.3983 163.434 41.7333 165.674 41.43L170.889 40.695V43.74L166.549 44.405C165.616 44.545 164.928 44.8017 164.484 45.175C164.041 45.5483 163.819 46.0617 163.819 46.715C163.819 47.2983 164.029 47.7417 164.449 48.045C164.869 48.3483 165.429 48.5 166.129 48.5C167.226 48.5 168.159 48.2083 168.929 47.625C169.699 47.0183 170.084 46.3183 170.084 45.525L170.574 48.325C170.061 49.655 169.279 50.6583 168.229 51.335C167.179 52.0117 165.896 52.35 164.379 52.35ZM186.609 52.385C184.322 52.385 182.619 51.8367 181.499 50.74C180.402 49.62 179.854 47.9283 179.854 45.665V30.16L185.104 28.2V45.84C185.104 46.6333 185.326 47.2283 185.769 47.625C186.212 48.0217 186.901 48.22 187.834 48.22C188.184 48.22 188.511 48.185 188.814 48.115C189.117 48.045 189.421 47.9633 189.724 47.87V51.86C189.421 52.0233 188.989 52.1517 188.429 52.245C187.892 52.3383 187.286 52.385 186.609 52.385ZM176.529 38.14V34.15H189.724V38.14H176.529ZM201.409 52.385C199.122 52.385 197.419 51.8367 196.299 50.74C195.202 49.62 194.654 47.9283 194.654 45.665V30.16L199.904 28.2V45.84C199.904 46.6333 200.126 47.2283 200.569 47.625C201.012 48.0217 201.701 48.22 202.634 48.22C202.984 48.22 203.311 48.185 203.614 48.115C203.917 48.045 204.221 47.9633 204.524 47.87V51.86C204.221 52.0233 203.789 52.1517 203.229 52.245C202.692 52.3383 202.086 52.385 201.409 52.385ZM191.329 38.14V34.15H204.524V38.14H191.329ZM215.455 52.35C213.472 52.35 211.745 51.965 210.275 51.195C208.805 50.4017 207.662 49.305 206.845 47.905C206.052 46.505 205.655 44.895 205.655 43.075C205.655 41.2317 206.052 39.6217 206.845 38.245C207.662 36.845 208.793 35.76 210.24 34.99C211.687 34.1967 213.367 33.8 215.28 33.8C217.123 33.8 218.722 34.1733 220.075 34.92C221.428 35.6667 222.478 36.705 223.225 38.035C223.972 39.365 224.345 40.9283 224.345 42.725C224.345 43.0983 224.333 43.4483 224.31 43.775C224.287 44.0783 224.252 44.37 224.205 44.65H208.735V41.185H219.97L219.06 41.815C219.06 40.3683 218.71 39.3067 218.01 38.63C217.333 37.93 216.4 37.58 215.21 37.58C213.833 37.58 212.76 38.0467 211.99 38.98C211.243 39.9133 210.87 41.3133 210.87 43.18C210.87 45 211.243 46.3533 211.99 47.24C212.76 48.1267 213.903 48.57 215.42 48.57C216.26 48.57 216.983 48.43 217.59 48.15C218.197 47.87 218.652 47.415 218.955 46.785H223.89C223.307 48.5117 222.303 49.8767 220.88 50.88C219.48 51.86 217.672 52.35 215.455 52.35ZM235.965 52.35C234.005 52.35 232.278 51.965 230.785 51.195C229.315 50.4017 228.16 49.305 227.32 47.905C226.503 46.4817 226.095 44.8483 226.095 43.005C226.095 41.1617 226.503 39.5517 227.32 38.175C228.16 36.7983 229.315 35.725 230.785 34.955C232.278 34.185 234.005 33.8 235.965 33.8C237.948 33.8 239.675 34.185 241.145 34.955C242.638 35.725 243.793 36.7983 244.61 38.175C245.426 39.5517 245.835 41.1617 245.835 43.005C245.835 44.8483 245.415 46.4817 244.575 47.905C243.758 49.305 242.603 50.4017 241.11 51.195C239.64 51.965 237.925 52.35 235.965 52.35ZM235.965 48.22C236.781 48.22 237.516 48.01 238.17 47.59C238.846 47.17 239.383 46.575 239.78 45.805C240.176 45.0117 240.375 44.0667 240.375 42.97C240.375 41.36 239.943 40.1233 239.08 39.26C238.24 38.3733 237.201 37.93 235.965 37.93C234.728 37.93 233.678 38.3733 232.815 39.26C231.975 40.1467 231.555 41.3833 231.555 42.97C231.555 44.0667 231.753 45.0117 232.15 45.805C232.546 46.575 233.071 47.17 233.725 47.59C234.401 48.01 235.148 48.22 235.965 48.22ZM263.053 52L254.023 26.8H259.623L266.518 47.8H265.853L272.783 26.8H278.103L269.073 52H263.053ZM280.61 52V34.15H285.86V52H280.61ZM280.435 31.77V26.1H286.035V31.77H280.435ZM298.24 52.385C295.953 52.385 294.25 51.8367 293.13 50.74C292.033 49.62 291.485 47.9283 291.485 45.665V30.16L296.735 28.2V45.84C296.735 46.6333 296.957 47.2283 297.4 47.625C297.843 48.0217 298.532 48.22 299.465 48.22C299.815 48.22 300.142 48.185 300.445 48.115C300.748 48.045 301.052 47.9633 301.355 47.87V51.86C301.052 52.0233 300.62 52.1517 300.06 52.245C299.523 52.3383 298.917 52.385 298.24 52.385ZM288.16 38.14V34.15H301.355V38.14H288.16ZM313.04 52.385C310.753 52.385 309.05 51.8367 307.93 50.74C306.833 49.62 306.285 47.9283 306.285 45.665V30.16L311.535 28.2V45.84C311.535 46.6333 311.756 47.2283 312.2 47.625C312.643 48.0217 313.331 48.22 314.265 48.22C314.615 48.22 314.941 48.185 315.245 48.115C315.548 48.045 315.851 47.9633 316.155 47.87V51.86C315.851 52.0233 315.42 52.1517 314.86 52.245C314.323 52.3383 313.716 52.385 313.04 52.385ZM302.96 38.14V34.15H316.155V38.14H302.96ZM327.156 52.35C325.196 52.35 323.469 51.965 321.976 51.195C320.506 50.4017 319.351 49.305 318.511 47.905C317.694 46.4817 317.286 44.8483 317.286 43.005C317.286 41.1617 317.694 39.5517 318.511 38.175C319.351 36.7983 320.506 35.725 321.976 34.955C323.469 34.185 325.196 33.8 327.156 33.8C329.139 33.8 330.866 34.185 332.336 34.955C333.829 35.725 334.984 36.7983 335.801 38.175C336.618 39.5517 337.026 41.1617 337.026 43.005C337.026 44.8483 336.606 46.4817 335.766 47.905C334.949 49.305 333.794 50.4017 332.301 51.195C330.831 51.965 329.116 52.35 327.156 52.35ZM327.156 48.22C327.973 48.22 328.708 48.01 329.361 47.59C330.038 47.17 330.574 46.575 330.971 45.805C331.368 45.0117 331.566 44.0667 331.566 42.97C331.566 41.36 331.134 40.1233 330.271 39.26C329.431 38.3733 328.393 37.93 327.156 37.93C325.919 37.93 324.869 38.3733 324.006 39.26C323.166 40.1467 322.746 41.3833 322.746 42.97C322.746 44.0667 322.944 45.0117 323.341 45.805C323.738 46.575 324.263 47.17 324.916 47.59C325.593 48.01 326.339 48.22 327.156 48.22ZM339.809 52V34.15H344.954V38.35H345.059V52H339.809ZM345.059 42.69L344.604 38.455C345.024 36.9383 345.712 35.7833 346.669 34.99C347.626 34.1967 348.816 33.8 350.239 33.8C350.682 33.8 351.009 33.8467 351.219 33.94V38.84C351.102 38.7933 350.939 38.77 350.729 38.77C350.519 38.7467 350.262 38.735 349.959 38.735C348.279 38.735 347.042 39.0383 346.249 39.645C345.456 40.2283 345.059 41.2433 345.059 42.69ZM353.481 52V34.15H358.731V52H353.481ZM353.306 31.77V26.1H358.906V31.77H353.306Z" fill="#181916"/>
<path d="M130.98 76.12C130.353 76.12 129.84 76.0067 129.44 75.78C129.04 75.5467 128.71 75.25 128.45 74.89L129.06 74.39C129.333 74.73 129.62 74.9833 129.92 75.15C130.227 75.3167 130.59 75.4 131.01 75.4C131.517 75.4 131.903 75.2833 132.17 75.05C132.437 74.8167 132.57 74.49 132.57 74.07C132.57 73.73 132.473 73.4667 132.28 73.28C132.087 73.0867 131.75 72.95 131.27 72.87L130.49 72.74C130.15 72.68 129.863 72.59 129.63 72.47C129.403 72.35 129.22 72.2067 129.08 72.04C128.94 71.8667 128.84 71.68 128.78 71.48C128.72 71.2733 128.69 71.06 128.69 70.84C128.69 70.2 128.9 69.7167 129.32 69.39C129.74 69.0633 130.307 68.9 131.02 68.9C131.58 68.9 132.05 68.9933 132.43 69.18C132.817 69.3667 133.127 69.63 133.36 69.97L132.77 70.48C132.577 70.2267 132.343 70.02 132.07 69.86C131.797 69.7 131.443 69.62 131.01 69.62C130.537 69.62 130.173 69.72 129.92 69.92C129.667 70.12 129.54 70.42 129.54 70.82C129.54 71.1333 129.633 71.39 129.82 71.59C130.013 71.7833 130.357 71.9233 130.85 72.01L131.6 72.14C131.94 72.2 132.227 72.29 132.46 72.41C132.693 72.53 132.88 72.6733 133.02 72.84C133.167 73.0067 133.27 73.1933 133.33 73.4C133.39 73.6067 133.42 73.8233 133.42 74.05C133.42 74.6967 133.207 75.2033 132.78 75.57C132.36 75.9367 131.76 76.12 130.98 76.12ZM136.996 76.12C136.569 76.12 136.203 76.04 135.896 75.88C135.589 75.7133 135.336 75.4767 135.136 75.17C134.936 74.8633 134.789 74.4867 134.696 74.04C134.603 73.5933 134.556 73.0833 134.556 72.51C134.556 71.9433 134.603 71.4367 134.696 70.99C134.789 70.5367 134.936 70.1567 135.136 69.85C135.336 69.5433 135.589 69.31 135.896 69.15C136.203 68.9833 136.569 68.9 136.996 68.9C137.423 68.9 137.789 68.9833 138.096 69.15C138.403 69.31 138.656 69.5433 138.856 69.85C139.056 70.1567 139.203 70.5367 139.296 70.99C139.389 71.4367 139.436 71.9433 139.436 72.51C139.436 73.0833 139.389 73.5933 139.296 74.04C139.203 74.4867 139.056 74.8633 138.856 75.17C138.656 75.4767 138.403 75.7133 138.096 75.88C137.789 76.04 137.423 76.12 136.996 76.12ZM136.996 75.39C137.276 75.39 137.513 75.3367 137.706 75.23C137.899 75.1167 138.059 74.96 138.186 74.76C138.313 74.56 138.403 74.32 138.456 74.04C138.516 73.7533 138.546 73.4333 138.546 73.08V71.94C138.546 71.5933 138.516 71.2767 138.456 70.99C138.403 70.7033 138.313 70.46 138.186 70.26C138.059 70.06 137.899 69.9067 137.706 69.8C137.513 69.6867 137.276 69.63 136.996 69.63C136.716 69.63 136.479 69.6867 136.286 69.8C136.093 69.9067 135.933 70.06 135.806 70.26C135.679 70.46 135.586 70.7033 135.526 70.99C135.473 71.2767 135.446 71.5933 135.446 71.94V73.08C135.446 73.4333 135.473 73.7533 135.526 74.04C135.586 74.32 135.679 74.56 135.806 74.76C135.933 74.96 136.093 75.1167 136.286 75.23C136.479 75.3367 136.716 75.39 136.996 75.39ZM140.892 76V69.02H145.292V69.75H141.732V72.1H144.992V72.83H141.732V76H140.892ZM149.408 69.75V76H148.568V69.75H146.238V69.02H151.738V69.75H149.408ZM152.884 76L152.334 69.02H153.084L153.374 73.02L153.524 75.13H153.604L154.524 70.84H155.464L156.384 75.13H156.464L156.614 73.02L156.904 69.02H157.634L157.084 76H155.874L155.024 71.83H154.944L154.094 76H152.884ZM162.79 76L162.2 74.01H159.75L159.16 76H158.29L160.43 69.02H161.54L163.68 76H162.79ZM161.02 69.91H160.93L159.95 73.28H162L161.02 69.91ZM165.717 76H164.877V69.02H167.417C168.063 69.02 168.557 69.1967 168.897 69.55C169.237 69.9033 169.407 70.3967 169.407 71.03C169.407 71.5967 169.26 72.05 168.967 72.39C168.673 72.73 168.247 72.9267 167.687 72.98L169.467 76H168.527L166.827 73.02H165.717V76ZM167.397 72.31C167.75 72.31 168.023 72.2233 168.217 72.05C168.417 71.87 168.517 71.6167 168.517 71.29V70.77C168.517 70.4433 168.417 70.1933 168.217 70.02C168.023 69.84 167.75 69.75 167.397 69.75H165.717V72.31H167.397ZM170.873 76V69.02H175.173V69.75H171.713V72.1H175.053V72.83H171.713V75.27H175.173V76H170.873ZM182.865 76V69.02H187.165V69.75H183.705V72.1H187.045V72.83H183.705V75.27H187.165V76H182.865ZM189.591 70.12H189.521V76H188.761V69.02H189.951L192.331 74.9H192.401V69.02H193.161V76H191.971L189.591 70.12ZM198.397 75.07H198.347C198.287 75.2033 198.217 75.3333 198.137 75.46C198.057 75.5867 197.954 75.7 197.827 75.8C197.707 75.8933 197.56 75.97 197.387 76.03C197.214 76.09 197.007 76.12 196.767 76.12C196.007 76.12 195.44 75.8133 195.067 75.2C194.7 74.5867 194.517 73.7067 194.517 72.56C194.517 71.36 194.72 70.45 195.127 69.83C195.534 69.21 196.16 68.9 197.007 68.9C197.334 68.9 197.617 68.9433 197.857 69.03C198.097 69.1167 198.3 69.2333 198.467 69.38C198.64 69.5267 198.784 69.6933 198.897 69.88C199.01 70.06 199.104 70.2433 199.177 70.43L198.457 70.76C198.397 70.6067 198.327 70.4633 198.247 70.33C198.174 70.19 198.08 70.07 197.967 69.97C197.86 69.8633 197.73 69.78 197.577 69.72C197.424 69.66 197.244 69.63 197.037 69.63C196.477 69.63 196.064 69.84 195.797 70.26C195.537 70.68 195.407 71.24 195.407 71.94V73.02C195.407 73.3733 195.434 73.6967 195.487 73.99C195.54 74.2767 195.627 74.5267 195.747 74.74C195.874 74.9533 196.034 75.12 196.227 75.24C196.427 75.3533 196.67 75.41 196.957 75.41C197.41 75.41 197.764 75.2733 198.017 75C198.27 74.7267 198.397 74.3733 198.397 73.94V73.22H196.927V72.55H199.177V76H198.397V75.07ZM200.793 76V75.33H202.533V69.69H200.793V69.02H205.113V69.69H203.373V75.33H205.113V76H200.793ZM207.579 70.12H207.509V76H206.749V69.02H207.939L210.319 74.9H210.389V69.02H211.149V76H209.959L207.579 70.12ZM212.845 76V69.02H217.145V69.75H213.685V72.1H217.025V72.83H213.685V75.27H217.145V76H212.845ZM218.841 76V69.02H223.141V69.75H219.681V72.1H223.021V72.83H219.681V75.27H223.141V76H218.841ZM225.678 76H224.838V69.02H227.378C228.024 69.02 228.518 69.1967 228.858 69.55C229.198 69.9033 229.368 70.3967 229.368 71.03C229.368 71.5967 229.221 72.05 228.928 72.39C228.634 72.73 228.208 72.9267 227.648 72.98L229.428 76H228.488L226.788 73.02H225.678V76ZM227.358 72.31C227.711 72.31 227.984 72.2233 228.178 72.05C228.378 71.87 228.478 71.6167 228.478 71.29V70.77C228.478 70.4433 228.378 70.1933 228.178 70.02C227.984 69.84 227.711 69.75 227.358 69.75H225.678V72.31H227.358Z" fill="#8F3522"/>
</svg>
