<svg width="256" height="256" viewBox="0 0 256 256" fill="none" xmlns="http://www.w3.org/2000/svg">
<g opacity="0.88">
<path d="M37 126C37.26 102.211 46.8256 79.4701 63.6478 62.6478C80.4701 45.8256 103.211 36.26 127 36" stroke="#B44D32" stroke-width="1.15"/>
<path d="M219 130C218.74 153.789 209.174 176.53 192.352 193.352C175.53 210.174 152.789 219.74 129 220" stroke="#B44D32" stroke-width="1.15"/>
</g>
<path d="M138.999 33.0999C140.159 33.0999 141.099 32.1597 141.099 30.9999C141.099 29.8401 140.159 28.8999 138.999 28.8999C137.84 28.8999 136.899 29.8401 136.899 30.9999C136.899 32.1597 137.84 33.0999 138.999 33.0999Z" fill="#B44D32"/>
<path d="M150.999 39.3499C151.745 39.3499 152.349 38.7455 152.349 37.9999C152.349 37.2543 151.745 36.6499 150.999 36.6499C150.254 36.6499 149.649 37.2543 149.649 37.9999C149.649 38.7455 150.254 39.3499 150.999 39.3499Z" fill="#B44D32"/>
<path d="M163.999 37.5999C165.435 37.5999 166.599 36.4358 166.599 34.9999C166.599 33.564 165.435 32.3999 163.999 32.3999C162.563 32.3999 161.399 33.564 161.399 34.9999C161.399 36.4358 162.563 37.5999 163.999 37.5999Z" fill="#B44D32"/>
<path d="M175.999 44.5999C176.883 44.5999 177.599 43.8836 177.599 42.9999C177.599 42.1162 176.883 41.3999 175.999 41.3999C175.116 41.3999 174.399 42.1162 174.399 42.9999C174.399 43.8836 175.116 44.5999 175.999 44.5999Z" fill="#B44D32"/>
<path d="M188 50.1998C189.215 50.1998 190.2 49.2148 190.2 47.9998C190.2 46.7848 189.215 45.7998 188 45.7998C186.785 45.7998 185.8 46.7848 185.8 47.9998C185.8 49.2148 186.785 50.1998 188 50.1998Z" fill="#B44D32"/>
<path d="M198 59.25C198.69 59.25 199.25 58.6904 199.25 58C199.25 57.3096 198.69 56.75 198 56.75C197.31 56.75 196.75 57.3096 196.75 58C196.75 58.6904 197.31 59.25 198 59.25Z" fill="#B44D32"/>
<path d="M207 69.6998C208.491 69.6998 209.7 68.491 209.7 66.9998C209.7 65.5086 208.491 64.2998 207 64.2998C205.509 64.2998 204.3 65.5086 204.3 66.9998C204.3 68.491 205.509 69.6998 207 69.6998Z" fill="#B44D32"/>
<path d="M202 80.4498C202.801 80.4498 203.45 79.8006 203.45 78.9998C203.45 78.199 202.801 77.5498 202 77.5498C201.199 77.5498 200.55 78.199 200.55 78.9998C200.55 79.8006 201.199 80.4498 202 80.4498Z" fill="#B44D32"/>
<path d="M215 86C216.105 86 217 85.1046 217 84C217 82.8954 216.105 82 215 82C213.895 82 213 82.8954 213 84C213 85.1046 213.895 86 215 86Z" fill="#B44D32"/>
<path d="M208 97.1998C208.663 97.1998 209.2 96.6625 209.2 95.9998C209.2 95.3371 208.663 94.7998 208 94.7998C207.337 94.7998 206.8 95.3371 206.8 95.9998C206.8 96.6625 207.337 97.1998 208 97.1998Z" fill="#B44D32"/>
<path d="M218 106.45C219.353 106.45 220.45 105.353 220.45 104C220.45 102.647 219.353 101.55 218 101.55C216.647 101.55 215.55 102.647 215.55 104C215.55 105.353 216.647 106.45 218 106.45Z" fill="#B44D32"/>
<path d="M201 109.55C201.856 109.55 202.55 108.856 202.55 108C202.55 107.144 201.856 106.45 201 106.45C200.144 106.45 199.45 107.144 199.45 108C199.45 108.856 200.144 109.55 201 109.55Z" fill="#B44D32"/>
<path d="M192 94.05C193.132 94.05 194.05 93.1321 194.05 92C194.05 90.8678 193.132 89.95 192 89.95C190.868 89.95 189.95 90.8678 189.95 92C189.95 93.1321 190.868 94.05 192 94.05Z" fill="#B44D32"/>
<path d="M188 69.05C188.58 69.05 189.05 68.5799 189.05 68C189.05 67.4201 188.58 66.95 188 66.95C187.42 66.95 186.95 67.4201 186.95 68C186.95 68.5799 187.42 69.05 188 69.05Z" fill="#B44D32"/>
<path d="M177 58.8999C178.049 58.8999 178.9 58.0492 178.9 56.9999C178.9 55.9505 178.049 55.0999 177 55.0999C175.95 55.0999 175.1 55.9505 175.1 56.9999C175.1 58.0492 175.95 58.8999 177 58.8999Z" fill="#B44D32"/>
<path d="M162.999 53.0999C163.607 53.0999 164.099 52.6074 164.099 51.9999C164.099 51.3924 163.607 50.8999 162.999 50.8999C162.392 50.8999 161.899 51.3924 161.899 51.9999C161.899 52.6074 162.392 53.0999 162.999 53.0999Z" fill="#B44D32"/>
<path d="M153 62.6499C153.911 62.6499 154.65 61.9111 154.65 60.9999C154.65 60.0886 153.911 59.3499 153 59.3499C152.088 59.3499 151.35 60.0886 151.35 60.9999C151.35 61.9111 152.088 62.6499 153 62.6499Z" fill="#B44D32"/>
<path d="M171 74.4498C172.353 74.4498 173.45 73.3529 173.45 71.9998C173.45 70.6467 172.353 69.5498 171 69.5498C169.647 69.5498 168.55 70.6467 168.55 71.9998C168.55 73.3529 169.647 74.4498 171 74.4498Z" fill="#B44D32"/>
<path d="M183.999 83.3499C184.745 83.3499 185.349 82.7455 185.349 81.9999C185.349 81.2543 184.745 80.6499 183.999 80.6499C183.254 80.6499 182.649 81.2543 182.649 81.9999C182.649 82.7455 183.254 83.3499 183.999 83.3499Z" fill="#B44D32"/>
<path d="M195.999 101.85C196.469 101.85 196.849 101.469 196.849 101C196.849 100.53 196.469 100.15 195.999 100.15C195.53 100.15 195.149 100.53 195.149 101C195.149 101.469 195.53 101.85 195.999 101.85Z" fill="#B44D32"/>
<path d="M116.999 222.1C118.159 222.1 119.099 221.16 119.099 220C119.099 218.84 118.159 217.9 116.999 217.9C115.84 217.9 114.899 218.84 114.899 220C114.899 221.16 115.84 222.1 116.999 222.1Z" fill="#B44D32"/>
<path d="M104 217.2C104.663 217.2 105.2 216.663 105.2 216C105.2 215.337 104.663 214.8 104 214.8C103.337 214.8 102.8 215.337 102.8 216C102.8 216.663 103.337 217.2 104 217.2Z" fill="#B44D32"/>
<path d="M90.9998 222.7C92.491 222.7 93.6998 221.491 93.6998 220C93.6998 218.509 92.491 217.3 90.9998 217.3C89.5086 217.3 88.2998 218.509 88.2998 220C88.2998 221.491 89.5086 222.7 90.9998 222.7Z" fill="#B44D32"/>
<path d="M79.0002 213.55C79.8562 213.55 80.5502 212.856 80.5502 212C80.5502 211.144 79.8562 210.45 79.0002 210.45C78.1442 210.45 77.4502 211.144 77.4502 212C77.4502 212.856 78.1442 213.55 79.0002 213.55Z" fill="#B44D32"/>
<path d="M66.9998 209.2C68.2148 209.2 69.1998 208.215 69.1998 207C69.1998 205.785 68.2148 204.8 66.9998 204.8C65.7848 204.8 64.7998 205.785 64.7998 207C64.7998 208.215 65.7848 209.2 66.9998 209.2Z" fill="#B44D32"/>
<path d="M57 198.25C57.6904 198.25 58.25 197.69 58.25 197C58.25 196.31 57.6904 195.75 57 195.75C56.3096 195.75 55.75 196.31 55.75 197C55.75 197.69 56.3096 198.25 57 198.25Z" fill="#B44D32"/>
<path d="M48 190.75C49.5188 190.75 50.75 189.519 50.75 188C50.75 186.481 49.5188 185.25 48 185.25C46.4812 185.25 45.25 186.481 45.25 188C45.25 189.519 46.4812 190.75 48 190.75Z" fill="#B44D32"/>
<path d="M52.9996 177.4C53.7728 177.4 54.3996 176.773 54.3996 176C54.3996 175.227 53.7728 174.6 52.9996 174.6C52.2264 174.6 51.5996 175.227 51.5996 176C51.5996 176.773 52.2264 177.4 52.9996 177.4Z" fill="#B44D32"/>
<path d="M40 173C41.1046 173 42 172.105 42 171C42 169.895 41.1046 169 40 169C38.8954 169 38 169.895 38 171C38 172.105 38.8954 173 40 173Z" fill="#B44D32"/>
<path d="M46.9996 160.15C47.6347 160.15 48.1496 159.635 48.1496 159C48.1496 158.365 47.6347 157.85 46.9996 157.85C46.3645 157.85 45.8496 158.365 45.8496 159C45.8496 159.635 46.3645 160.15 46.9996 160.15Z" fill="#B44D32"/>
<path d="M36.9998 153.45C38.3529 153.45 39.4498 152.353 39.4498 151C39.4498 149.647 38.3529 148.55 36.9998 148.55C35.6467 148.55 34.5498 149.647 34.5498 151C34.5498 152.353 35.6467 153.45 36.9998 153.45Z" fill="#B44D32"/>
<path d="M54 148.5C54.8284 148.5 55.5 147.828 55.5 147C55.5 146.172 54.8284 145.5 54 145.5C53.1716 145.5 52.5 146.172 52.5 147C52.5 147.828 53.1716 148.5 54 148.5Z" fill="#B44D32"/>
<path d="M63 165C64.1046 165 65 164.105 65 163C65 161.895 64.1046 161 63 161C61.8954 161 61 161.895 61 163C61 164.105 61.8954 165 63 165Z" fill="#B44D32"/>
<path d="M67.0002 188.05C67.5801 188.05 68.0502 187.58 68.0502 187C68.0502 186.42 67.5801 185.95 67.0002 185.95C66.4203 185.95 65.9502 186.42 65.9502 187C65.9502 187.58 66.4203 188.05 67.0002 188.05Z" fill="#B44D32"/>
<path d="M77.9996 199.9C79.049 199.9 79.8996 199.049 79.8996 198C79.8996 196.951 79.049 196.1 77.9996 196.1C76.9503 196.1 76.0996 196.951 76.0996 198C76.0996 199.049 76.9503 199.9 77.9996 199.9Z" fill="#B44D32"/>
<path d="M91.9994 204.1C92.6069 204.1 93.0994 203.607 93.0994 203C93.0994 202.392 92.6069 201.9 91.9994 201.9C91.3919 201.9 90.8994 202.392 90.8994 203C90.8994 203.607 91.3919 204.1 91.9994 204.1Z" fill="#B44D32"/>
<path d="M102 195.65C102.911 195.65 103.65 194.911 103.65 194C103.65 193.089 102.911 192.35 102 192.35C101.088 192.35 100.35 193.089 100.35 194C100.35 194.911 101.088 195.65 102 195.65Z" fill="#B44D32"/>
<path d="M83.9996 185.4C85.3251 185.4 86.3996 184.325 86.3996 183C86.3996 181.674 85.3251 180.6 83.9996 180.6C82.6741 180.6 81.5996 181.674 81.5996 183C81.5996 184.325 82.6741 185.4 83.9996 185.4Z" fill="#B44D32"/>
<path d="M71.0002 174.3C71.7182 174.3 72.3002 173.718 72.3002 173C72.3002 172.282 71.7182 171.7 71.0002 171.7C70.2822 171.7 69.7002 172.282 69.7002 173C69.7002 173.718 70.2822 174.3 71.0002 174.3Z" fill="#B44D32"/>
<path d="M58.9994 154.85C59.4689 154.85 59.8494 154.469 59.8494 154C59.8494 153.53 59.4689 153.15 58.9994 153.15C58.53 153.15 58.1494 153.53 58.1494 154C58.1494 154.469 58.53 154.85 58.9994 154.85Z" fill="#B44D32"/>
<path d="M128 25.5999C128.884 25.5999 129.6 24.8836 129.6 23.9999C129.6 23.1162 128.884 22.3999 128 22.3999C127.117 22.3999 126.4 23.1162 126.4 23.9999C126.4 24.8836 127.117 25.5999 128 25.5999Z" fill="#181916"/>
<path d="M158 27.0999C158.608 27.0999 159.1 26.6074 159.1 25.9999C159.1 25.3924 158.608 24.8999 158 24.8999C157.393 24.8999 156.9 25.3924 156.9 25.9999C156.9 26.6074 157.393 27.0999 158 27.0999Z" fill="#181916"/>
<path d="M181 36C182.105 36 183 35.1046 183 34C183 32.8954 182.105 32 181 32C179.895 32 179 32.8954 179 34C179 35.1046 179.895 36 181 36Z" fill="#181916"/>
<path d="M218 62.5C218.828 62.5 219.5 61.8284 219.5 61C219.5 60.1716 218.828 59.5 218 59.5C217.172 59.5 216.5 60.1716 216.5 61C216.5 61.8284 217.172 62.5 218 62.5Z" fill="#181916"/>
<path d="M225 92.05C225.58 92.05 226.05 91.5799 226.05 91C226.05 90.4201 225.58 89.95 225 89.95C224.42 89.95 223.95 90.4201 223.95 91C223.95 91.5799 224.42 92.05 225 92.05Z" fill="#181916"/>
<path d="M211 117.7C211.939 117.7 212.7 116.939 212.7 116C212.7 115.061 211.939 114.3 211 114.3C210.061 114.3 209.3 115.061 209.3 116C209.3 116.939 210.061 117.7 211 117.7Z" fill="#181916"/>
<path d="M128 229.6C128.884 229.6 129.6 228.884 129.6 228C129.6 227.116 128.884 226.4 128 226.4C127.117 226.4 126.4 227.116 126.4 228C126.4 228.884 127.117 229.6 128 229.6Z" fill="#181916"/>
<path d="M98.0004 231.1C98.6079 231.1 99.1004 230.607 99.1004 230C99.1004 229.392 98.6079 228.9 98.0004 228.9C97.3929 228.9 96.9004 229.392 96.9004 230C96.9004 230.607 97.3929 231.1 98.0004 231.1Z" fill="#181916"/>
<path d="M75 224C76.1046 224 77 223.105 77 222C77 220.895 76.1046 220 75 220C73.8954 220 73 220.895 73 222C73 223.105 73.8954 224 75 224Z" fill="#181916"/>
<path d="M38 196.5C38.8284 196.5 39.5 195.828 39.5 195C39.5 194.172 38.8284 193.5 38 193.5C37.1716 193.5 36.5 194.172 36.5 195C36.5 195.828 37.1716 196.5 38 196.5Z" fill="#181916"/>
<path d="M31.0002 166.05C31.5801 166.05 32.0502 165.58 32.0502 165C32.0502 164.42 31.5801 163.95 31.0002 163.95C30.4203 163.95 29.9502 164.42 29.9502 165C29.9502 165.58 30.4203 166.05 31.0002 166.05Z" fill="#181916"/>
<path d="M44.9998 141.7C45.9387 141.7 46.6998 140.939 46.6998 140C46.6998 139.061 45.9387 138.3 44.9998 138.3C44.0609 138.3 43.2998 139.061 43.2998 140C43.2998 140.939 44.0609 141.7 44.9998 141.7Z" fill="#181916"/>
<g opacity="0.82">
<path d="M145.001 47.9001C145.498 47.9001 145.901 47.4972 145.901 47.0001C145.901 46.503 145.498 46.1001 145.001 46.1001C144.504 46.1001 144.101 46.503 144.101 47.0001C144.101 47.4972 144.504 47.9001 145.001 47.9001Z" fill="#8B8982"/>
<path d="M191 58.75C191.414 58.75 191.75 58.4142 191.75 58C191.75 57.5858 191.414 57.25 191 57.25C190.586 57.25 190.25 57.5858 190.25 58C190.25 58.4142 190.586 58.75 191 58.75Z" fill="#8B8982"/>
<path d="M214 75.1001C214.608 75.1001 215.1 74.6077 215.1 74.0001C215.1 73.3926 214.608 72.9001 214 72.9001C213.393 72.9001 212.9 73.3926 212.9 74.0001C212.9 74.6077 213.393 75.1001 214 75.1001Z" fill="#8B8982"/>
<path d="M199 117.8C199.442 117.8 199.8 117.442 199.8 117C199.8 116.558 199.442 116.2 199 116.2C198.558 116.2 198.2 116.558 198.2 117C198.2 117.442 198.558 117.8 199 117.8Z" fill="#8B8982"/>
<path d="M111.001 209.9C111.498 209.9 111.901 209.497 111.901 209C111.901 208.503 111.498 208.1 111.001 208.1C110.504 208.1 110.101 208.503 110.101 209C110.101 209.497 110.504 209.9 111.001 209.9Z" fill="#8B8982"/>
<path d="M65 198.75C65.4142 198.75 65.75 198.414 65.75 198C65.75 197.586 65.4142 197.25 65 197.25C64.5858 197.25 64.25 197.586 64.25 198C64.25 198.414 64.5858 198.75 65 198.75Z" fill="#8B8982"/>
<path d="M42.0004 183.1C42.6079 183.1 43.1004 182.608 43.1004 182C43.1004 181.393 42.6079 180.9 42.0004 180.9C41.3929 180.9 40.9004 181.393 40.9004 182C40.9004 182.608 41.3929 183.1 42.0004 183.1Z" fill="#8B8982"/>
<path d="M57.0002 139.8C57.442 139.8 57.8002 139.442 57.8002 139C57.8002 138.558 57.442 138.2 57.0002 138.2C56.5584 138.2 56.2002 138.558 56.2002 139C56.2002 139.442 56.5584 139.8 57.0002 139.8Z" fill="#8B8982"/>
</g>
<path d="M151.241 127.461C150.961 126.328 150.244 125.365 149.228 124.789C148.214 124.213 146.985 124.071 145.829 124.39C144.674 124.709 143.692 125.461 143.116 126.476C142.54 127.491 142.418 128.686 142.759 129.802C142.759 129.802 142.759 129.802 142.759 129.802C143.258 131.44 143.758 133.079 144.258 134.717C147.833 146.435 151.407 158.154 154.982 169.872L161.322 169.801C165.375 151.673 169.427 133.545 173.479 115.417C173.853 113.746 174.226 112.074 174.6 110.403C174.693 109.987 174.614 109.546 174.388 109.178C174.161 108.81 173.805 108.546 173.392 108.442C172.979 108.338 172.541 108.402 172.167 108.619C171.793 108.835 171.515 109.187 171.4 109.597C171.4 109.597 171.4 109.597 171.4 109.597C170.937 111.246 170.475 112.895 170.012 114.544C164.996 132.429 159.98 150.314 154.963 168.199L161.304 168.128C158.361 156.234 155.418 144.341 152.475 132.448C152.064 130.786 151.653 129.123 151.241 127.461Z" fill="#B44D32"/>
<path d="M82 150V95L116.048 131.667L147 98.0556V128.611" stroke="#181916" stroke-width="9" stroke-linejoin="round"/>
</svg>
